<?xml version="1.0" encoding="utf-8"?>
<!-- Generator: Adobe Illustrator 24.0.2, SVG Export Plug-In . SVG Version: 6.00 Build 0)  -->
<svg version="1.1" id="Layer_1" xmlns="http://www.w3.org/2000/svg" xmlns:xlink="http://www.w3.org/1999/xlink" x="0px" y="0px"
	 viewBox="0 0 210.0369 272.0039" enable-background="new 0 0 210.0369 272.0039" xml:space="preserve">
<g>
	<path d="M45.315,84.2295c12.0991,2.8174,24.1923-4.707,27.0092-16.8076c2.8179-12.0996-4.708-24.1924-16.8061-27.0108
		c-12.0996-2.8164-24.1939,4.708-27.0117,16.8076C25.689,69.3193,33.2144,81.4121,45.315,84.2295z"/>
	<path d="M8.0357,190.8911c0.0346,0,0.0688-0.0005,0.1035-0.0005c4.4184-0.0581,7.9531-3.6865,7.8955-8.1035
		c-0.0239-1.8022-0.0342-3.5605-0.0342-5.2808c-0.0376-30.7075,3.5952-48.5493,7.3696-58.3403v29.5352v18.9394v92
		c0,6.8291,5.5362,12.3633,12.3633,12.3633c6.8281,0,12.3643-5.5342,12.3643-12.3633v-84.2724h4.6357v84.2724
		c0,6.8291,5.5361,12.3633,12.3633,12.3633c6.8281,0,12.3643-5.5342,12.3643-12.3633v-92v-18.9394v-27.8941
		c4.4033,11.0454,9.2397,30.5532,11.7651,63.6397c0.3198,4.1982,3.8291,7.3911,7.9717,7.3911c0.2041,0,0.4092-0.0078,0.6157-0.0235
		c2.6924-0.206,4.9653-1.7265,6.2534-3.8798c0.6714-0.8233,1.1597-1.815,1.3633-2.9346
		c6.9067-38.0474,14.7978-58.4898,20.831-69.0151l-16.7089,85.9985h21.667v59.5293c0,5.5234,4.4765,10,10,10
		c5.521,0,10-4.4766,10-10v-59.5293h3.333v59.5293c0,5.5234,4.4765,10,10,10c5.521,0,10-4.4766,10-10v-59.5293h21.667
		l-16.8384-86.6646c1.626,3.0591,3.3906,6.9996,5.1953,12.0591c4.2515,11.8687,8.7397,29.7949,12.5229,56.4268
		c0.462,3.2451,3.2456,5.5874,6.4317,5.5874c0.3037,0,0.6113-0.0215,0.9209-0.0654c3.5527-0.5059,6.0239-3.7979,5.52-7.3506
		c-5.9033-41.3326-13.4185-63.0025-20.3735-75.042c-3.4922-6.0054-6.9107-9.6465-10.104-11.8428
		c-1.9825-1.3765-3.8882-2.1284-5.4668-2.4932c-2.4707-0.9829-9.4859-3.2817-21.1421-3.2817c-14.8145,0-22.166,3.7236-22.166,3.7236
		l-0.0142,0.0728c-0.9771,0.3789-2.0806,0.9228-3.2671,1.7099c-4.5781,3.0293-10.2944,9.2007-16.3838,22.3672
		c-3.3755,7.3184-6.8794,16.836-10.3247,29.3081c-3.2768-18.5068-7.4321-30.5302-11.5571-38.6035
		c-3.2056-6.2383-6.4536-10.1303-9.3696-12.5639c-2.9029-2.4371-5.4859-3.3213-6.7774-3.5513
		c-0.6323-0.1201-1.2593-0.1533-1.875-0.124c-0.46-0.0855-0.9326-0.1358-1.417-0.1358H31.0977c-0.628,0-1.2354,0.083-1.8199,0.2246
		c-1.6811,0.2188-4.0595,0.8418-6.6591,2.396c-5.3965,3.2012-11.107,9.8653-15.3257,22.4712
		C3.0454,129.2768,0.0117,148.1836,0,177.5063c0,1.7901,0.0117,3.6182,0.0357,5.4883
		C0.0933,187.3769,3.666,190.8911,8.0357,190.8911z"/>
	<path d="M147.7852,84.2295c12.0991,2.8174,24.1924-4.707,27.0097-16.8076c2.8174-12.0996-4.708-24.1924-16.8066-27.0108
		c-12.0996-2.8164-24.1934,4.708-27.0117,16.8076C128.1592,69.3193,135.6846,81.4121,147.7852,84.2295z"/>
	<path d="M101.2954,46.9297C148.2251,16.1328,123.294,0,113.7612,0c-9.5327,0-12.4658,7.333-12.4658,7.333S98.3618,0,88.8301,0
		C79.2974,0,54.3662,16.1328,101.2954,46.9297z"/>
</g>
</svg>
